/* XPM */
static char *_a099bd797c14e57df6b8c0c7323f58eiTPPBwDEXr9uSw59[] = {
/* columns rows colors chars-per-pixel */
"40 40 35 1 ",
"  c #14182E",
". c #181B2E",
"X c #191D2E",
"o c #1D212F",
"O c #20232F",
"+ c #21242F",
"@ c #24272F",
"# c #272A2F",
"$ c #2C2F2F",
"% c #2F3130",
"& c #303330",
"* c #323430",
"= c #343630",
"- c #373A30",
"; c #3D3F30",
": c #3F4131",
"> c #404231",
", c #434531",
"< c #454631",
"1 c #4A4B31",
"2 c #4E4F32",
"3 c #4F5032",
"4 c #515232",
"5 c #535432",
"6 c #565732",
"7 c #585932",
"8 c #5B5C32",
"9 c #5C5C32",
"0 c #626333",
"q c #666633",
"w c #B9722D",
"e c #C7742C",
"r c #CF752B",
"t c #F0B541",
"y c #FFEE83",
/* pixels */
"qqqqqqqqqqqqqqqqqqqqqqqqqqqqqqqqqqqqqqqq",
"qqqqqqqqqqqqqqqqqqqqqqqqqqqqqqqqqqqqqqqq",
"qqqqqqqqqqqqqqqqqqqqqqqqqqqqqqqqqqqqqqqq",
"qqqqqqqqqqqqqqqqqqqqqqqqqqqqqqqqqqqqqqqq",
"qqqqqqqqqqqqqqq*       -qqqqqqqqqqqqqqqq",
"qqqqqqqqqqqqqqq         qqqqqqqqqqqqqqqq",
"qqqqqqqqqqq<o. yyyyyyyyy   2qqqqqqqqqqqq",
"qqqqqqqqqqq    yyyyyyyyy   &qqqqqqqqqqqq",
"qqqqqqqq5+ yytttttttttttttyy#,7qqqqqqqqq",
"qqqqqqqq   yytttttttttttttyy   qqqqqqqqq",
"qqqqqq< yyytttttttttttttttttyyy >qqqqqqq",
"qqqqqq; yyytttttttttttttttttyyy 1qqqqqqq",
"qqqqqq; yyytttttttttttttttttyyy 9qqqqqqq",
"qqqqqq; ttttttttttttttttttttttt 4qqqqqqq",
"qqqqqqX ttttttttttttttttttttttt #qqqqqqq",
"qqqq$ yytttttttttttttttttttttttyy  qqqqq",
"qqqq  yytttttttttttttttttttttttyy  qqqqq",
"qqqq  ttttttttttttttttttttttttttt  qqqqq",
"qqqq  ttttttttttttttttttttttttttt  qqqqq",
"qqqq  ttttttttttttttttttttttttttt  qqqqq",
"qqqq  ttttttttttttttttttttttttttt  qqqqq",
"qqqq  ttttttttttttttttttttttttttt  qqqqq",
"qqqq  rrtttttttttttttttttttttttrr  qqqqq",
"qqqq@ rrtttttttttttttttttttttttrr  qqqqq",
"qqqqqq% ttttttttttttttttttttttt  qqqqqqq",
"qqqqqq6 ttttttttttttttttttttttt >qqqqqqq",
"qqqqqq7 rrrtttttttttttttttttrrr 1qqqqqqq",
"qqqqqq7 rrrtttttttttttttttttrre#3qqqqqqq",
"qqqqqqqq   rrrrtttttttttrrrr =qqqqqqqqqq",
"qqqqqqqq=# rrrrtttttttttrrrr 7qqqqqqqqqq",
"qqqqqqqqqq,rrrrtttttttttrrrrX8qqqqqqqqqq",
"qqqqqqqqqqq-O  rrrrrrrrr  #7qqqqqqqqqqqq",
"qqqqqqqqqqqqq- rrrrrrrrw<:4qqqqqqqqqqqqq",
"qqqqqqqqqqqqqqq       o0qqqqqqqqqqqqqqqq",
"qqqqqqqqqqqqqqq%      -qqqqqqqqqqqqqqqqq",
"qqqqqqqqqqqqqqqqqqqqqqqqqqqqqqqqqqqqqqqq",
"qqqqqqqqqqqqqqqqqqqqqqqqqqqqqqqqqqqqqqqq",
"qqqqqqqqqqqqqqqqqqqqqqqqqqqqqqqqqqqqqqqq",
"qqqqqqqqqqqqqqqqqqqqqqqqqqqqqqqqqqqqqqqq",
"qqqqqqqqqqqqqqqqqqqqqqqqqqqqqqqqqqqqqqqq"
};
