/* XPM */
static char *cce31b131fda40d9be444b6d4449b1cdyHLSY5ldi90i67lr[] = {
/* columns rows colors chars-per-pixel */
"40 40 29 1 ",
"  c #14182E",
". c #1A1E2E",
"X c #1D212F",
"o c #21242F",
"O c #282B2F",
"+ c #2A2D2F",
"@ c #2C2F2F",
"# c #3B2027",
"$ c #2F3130",
"% c #303330",
"& c #323530",
"* c #343730",
"= c #363830",
"- c #3B3D30",
"; c #7D3833",
": c #3F4130",
"> c #414331",
", c #434531",
"< c #474831",
"1 c #494B31",
"2 c #4B4C32",
"3 c #4D4E31",
"4 c #545532",
"5 c #575832",
"6 c #666633",
"7 c #2C354D",
"8 c #BD6A62",
"9 c #F0B541",
"0 c #FFEE83",
/* pixels */
"6666666666666666666666666666666666666666",
"6666666666666666666666666666666666666666",
"6666666666666666666666666666666666666666",
"6666666666666666666666666666666666666666",
"6666666666666666666666666666666666666666",
"6666666666666666666666666666666666666666",
"6666666666666666666666666666666666666666",
"6666662666666666666666666666666 =6666666",
"66666<0 %1<:=$$$$$$$$$$$$$OoX. 004666666",
"66666 0                        00-666666",
"6666500888888888888888888888888000>66666",
"6666300;;;;;;;;;;;;;;;;;;;;;;;;000@66666",
"6666,00888888888888888888888888000@66666",
"6666=00888888888888888888888888000*66666",
"6666+99########################999=66666",
"6666X99999;;;;;;;;999;;;;;;;;99999=66666",
"6666              999             =66666",
"6666              999             =66666",
"6666 077777777777 999 777777777770=66666",
"6666 0000000000000   0000000000000=66666",
"6666                              =66666",
"6666                              =66666",
"6666 99;;;;;;;;;;;;;;;;;;;;;;;;999=66666",
"6666 99########################999=66666",
"6666 99;;;;;;;;;;;;;;;;;;;;;;;;999=66666",
"6666 99;;;;;;;;;;;;;;;;;;;;;;;;999=66666",
"6666 99999000000000000000000099999=66666",
"6666<<,:----=&&&&&&&&&&&&&&&&&&&&&<66666",
"6666666666666666666666666666666666666666",
"6666666666666666666666666666666666666666",
"6666666666666666666666666666666666666666",
"6666666666666666666666666666666666666666",
"6666666666666666666666666666666666666666",
"6666666666666666666666666666666666666666",
"6666666666666666666666666666666666666666",
"6666666666666666666666666666666666666666",
"6666666666666666666666666666666666666666",
"6666666666666666666666666666666666666666",
"6666666666666666666666666666666666666666",
"6666666666666666666666666666666666666666"
};
