/* XPM */
static char *_41a123717a04ade80180197bd1cc50edjiB981fqoXGSnD8[] = {
/* columns rows colors chars-per-pixel */
"40 40 16 1 ",
"  c None",
". c black",
"X c #020201",
"o c #030301",
"O c #030302",
"+ c #080804",
"@ c #0B0B06",
"# c #18180C",
"$ c #261700",
"% c #37371C",
"& c #3E3E1F",
"* c #666633",
"= c #717171",
"- c #9B4F4F",
"; c gray55",
": c #CFB4B4",
/* pixels */
"****************************************",
"****************************************",
"****************************************",
"****************************************",
"****************************************",
"****************************************",
"****************************************",
"****************************************",
"****************************************",
"****************************************",
"****************************************",
"****************************************",
"*****************......**....***********",
"*****************......* ....***********",
"***************..::::;;..====..*********",
"***************+.::::;;..====..*********",
"***************..::::;;;;;;;;;;..*******",
"***************..::::;;;;;;;;;;..*******",
"***************&...::::;;$$;;$$..*******",
"***************#...::::;;$$;;$$.. ******",
"*******........======;;;;;;;;;;--..*****",
"*******........======;;;;;;;;;;--..*****",
"*****..::::::==========;;;;::::..*******",
"*****..::::::==========;;;;::::..*******",
"***..::......==============....*********",
"***..::...+%.==============....*********",
"**** ..******..==....====..*************",
"*****..******..==....====..*************",
"****************************************",
"****************************************",
"****************************************",
"****************************************",
"****************************************",
"****************************************",
"****************************************",
"****************************************",
"****************************************",
"****************************************",
"****************************************",
"****************************************"
};
