/* XPM */
static char *_cd0e6338f864ac9dd9f4c8a75af82f0Kfur8VCSX1MyVIf1[] = {
/* columns rows colors chars-per-pixel */
"40 40 5 1 ",
"  c #402205",
". c #704012",
"X c #7E4C1C",
"o c #666633",
"O c #955D27",
/* pixels */
"oooo                                oooo",
"oooo XXXXXXXXXXOOXXOOOOOOOOOOOOOO   oooo",
"oooo XXXXXXXXXXOOXXOOOOOOOOOOOOOO   oooo",
"oooo XX                        OO   oooo",
"oooo XX                        OO   oooo",
"oooo XX  OOOO    ............  XX   oooo",
"oooo XX  OOOO    ............  XX   oooo",
"oooo XX      OOXX    ..XXXXXX..     oooo",
"oooo XX      OOXX    ..XXXXXX..     oooo",
"oooo XX  ....    OOXX    XX..  OO   oooo",
"oooo XX  ....    OOXX    XX..  OO   oooo",
"oooo XX  XXXX....    XXXX      OO   oooo",
"oooo XX  XXXX....    XXXX      OO   oooo",
"oooo XX  XXXXXX......    XXXX  XX   oooo",
"oooo XX  XXXXXX......    XXXX  XX   oooo",
"oooo XX                        XX   oooo",
"oooo XX                        XX   oooo",
"oooo XXXXXXXXXXXXXXXXXXXXXXXXXXXX   oooo",
"oooo XXXXXXXXXXXXXXXXXXXXXXXXXXXX   oooo",
"oooo                                oooo",
"oooo                                oooo",
"oooo OOOOXX  OOXXXXXXXXOOXXXXXXXX   oooo",
"oooo OOOOXX  OOXXXXXXXXOOXXXXXXXX   oooo",
"oooo       ..                       oooo",
"oooo       ..                       oooo",
"oooo ....  ....  ......  ..  ....   oooo",
"oooo ....  ....  ......  ..  ....   oooo",
"oooo XX..  XX..  XX....  ..  ....   oooo",
"oooo XX..  XX..  XX....  ..  ....   oooo",
"oooo XXXX..  ..  XXXX  ..XX  ..XX   oooo",
"oooo XXXX..  ..  XXXX  ..XX  ..XX   oooo",
"oooo XX..  XX..  ..XX  ..XX  ....   oooo",
"oooo XX..  XX..  ..XX  ..XX  ....   oooo",
"oooo               XX               oooo",
"oooo               XX               oooo",
"oooo OOOOOOXXXXXXOO  XXXXXXXXXXXX   oooo",
"oooo OOOOOOXXXXXXOO  XXXXXXXXXXXX   oooo",
"oooo                                oooo",
"oooo                                oooo",
"oooo                                oooo"
};
